<?xml version="1.0" encoding="UTF-8" standalone="no"?>
<svg xmlns:dc="http://purl.org/dc/elements/1.1/" xmlns:cc="http://creativecommons.org/ns#" xmlns:rdf="http://www.w3.org/1999/02/22-rdf-syntax-ns#" xmlns:svg="http://www.w3.org/2000/svg" xmlns="http://www.w3.org/2000/svg" xmlns:sodipodi="http://sodipodi.sourceforge.net/DTD/sodipodi-0.dtd" xmlns:inkscape="http://www.inkscape.org/namespaces/inkscape" version="1.1" x="0px" y="0px" width="77.695" height="72" viewBox="0 0 77.695 72" enable-background="new 0 0 100 100" xml:space="preserve" id="svg2" inkscape:version="0.48.3.1 r9886" sodipodi:docname="noun_project_10759.svg"><metadata id="metadata14"><rdf:RDF><cc:Work rdf:about=""><dc:format>image/svg+xml</dc:format><dc:type rdf:resource="http://purl.org/dc/dcmitype/StillImage"/></cc:Work></rdf:RDF></metadata><defs id="defs12"/><sodipodi:namedview pagecolor="#ffffff" bordercolor="#666666" borderopacity="1" objecttolerance="10" gridtolerance="10" guidetolerance="10" inkscape:pageopacity="0" inkscape:pageshadow="2" inkscape:window-width="640" inkscape:window-height="480" id="namedview10" showgrid="false" fit-margin-top="0" fit-margin-left="0" fit-margin-right="0" fit-margin-bottom="0" inkscape:zoom="2.36" inkscape:cx="36" inkscape:cy="36" inkscape:window-x="35" inkscape:window-y="0" inkscape:window-maximized="0" inkscape:current-layer="svg2"/>
<g id="Calque_1" transform="translate(-14,-14)">
	<polygon points="40.865,61.688 48.765,70.682 49.045,71 91.695,33.529 83.512,24.217 50.039,53.627 38.365,40.344 29.188,48.405 " id="polygon5"/>
</g>
<g id="Calque_2" transform="translate(-14,-14)">
	<path d="M 77,77 H 23 V 23 h 54 v 1.541 l 7.47,-6.547 C 82.856,15.586 80.116,14 77,14 H 23 c -4.97,0 -9,4.03 -9,9 v 54 c 0,4.969 4.03,9 9,9 h 54 c 4.971,0 9,-4.031 9,-9 V 43.857 l -9,7.907 V 77 z" id="path8" inkscape:connector-curvature="0"/>
</g>
</svg>