<?xml version="1.0" encoding="UTF-8" standalone="no"?>
<svg
   xmlns:dc="http://purl.org/dc/elements/1.1/"
   xmlns:cc="http://creativecommons.org/ns#"
   xmlns:rdf="http://www.w3.org/1999/02/22-rdf-syntax-ns#"
   xmlns:svg="http://www.w3.org/2000/svg"
   xmlns="http://www.w3.org/2000/svg"
   xmlns:sodipodi="http://sodipodi.sourceforge.net/DTD/sodipodi-0.dtd"
   xmlns:inkscape="http://www.inkscape.org/namespaces/inkscape"
   version="1.1"
   x="0px"
   y="0px"
   width="77.695"
   height="72"
   viewBox="0 0 77.695 72"
   enable-background="new 0 0 100 100"
   xml:space="preserve"
   id="svg2"
   inkscape:version="0.48.4 r9939"
   sodipodi:docname="checkbox-unchecked.svg"><metadata
     id="metadata14"><rdf:RDF><cc:Work
         rdf:about=""><dc:format>image/svg+xml</dc:format><dc:type
           rdf:resource="http://purl.org/dc/dcmitype/StillImage" /><dc:title></dc:title></cc:Work></rdf:RDF></metadata><defs
     id="defs12" /><sodipodi:namedview
     pagecolor="#ffffff"
     bordercolor="#666666"
     borderopacity="1"
     objecttolerance="10"
     gridtolerance="10"
     guidetolerance="10"
     inkscape:pageopacity="0"
     inkscape:pageshadow="2"
     inkscape:window-width="1920"
     inkscape:window-height="1002"
     id="namedview10"
     showgrid="false"
     fit-margin-top="0"
     fit-margin-left="0"
     fit-margin-right="0"
     fit-margin-bottom="0"
     inkscape:zoom="5.6568543"
     inkscape:cx="80.376228"
     inkscape:cy="27.35704"
     inkscape:window-x="0"
     inkscape:window-y="34"
     inkscape:window-maximized="1"
     inkscape:current-layer="svg2" /><g
     id="Calque_2"
     transform="translate(-14,-14)"
     inkscape:export-filename="/home/orangey/workspace/kitab/app/webroot/img/checkbox-unchecked.png"
     inkscape:export-xdpi="62.5"
     inkscape:export-ydpi="62.5"><path
       d="M 77,77 H 23 V 23 h 54 v 1.541 l 7.47,-6.547 C 82.856,15.586 80.116,14 77,14 H 23 c -4.97,0 -9,4.03 -9,9 v 54 c 0,4.969 4.03,9 9,9 h 54 c 4.971,0 9,-4.031 9,-9 V 43.857 l -9,7.907 V 77 z"
       id="path8"
       inkscape:connector-curvature="0" /></g><g
     id="Calque_2-3"
     transform="matrix(-1,0,0,1,86,-14)"
     inkscape:export-filename="/home/orangey/workspace/kitab/app/webroot/img/checkbox-unchecked.png"
     inkscape:export-xdpi="62.5"
     inkscape:export-ydpi="62.5"><path
       d="M 77,77 H 23 V 23 h 54 v 1.541 l 7.47,-6.547 C 82.856,15.586 80.116,14 77,14 H 23 c -4.97,0 -9,4.03 -9,9 v 54 c 0,4.969 4.03,9 9,9 h 54 c 4.971,0 9,-4.031 9,-9 V 43.857 l -9,7.907 V 77 z"
       id="path8-6"
       inkscape:connector-curvature="0" /></g></svg>